<svg enable-background="new 0 0 48 48" height="48" viewBox="0 0 48 48" width="48" xmlns="http://www.w3.org/2000/svg"><path d="m26.85 42.459c-10.782-1.557-15.906-8.091-16.069-14.229-.136-5.138 3.404-10.806 11.375-12.148-1.711-.865-3.806-1.019-6.274-.418-5.012 1.221-8.468 4.232-9.729 8.479-1.158 3.903-.319 8.387 2.171 12.334 2.577 3.274 6.177 5.787 10.511 6.948 4.161 1.115 8.36.817 12.113-.576-1.384.066-2.756-.058-4.098-.39z" fill="#303f9f"/><path d="m15.305 26.781c.09-.335.193-.654.305-.957 1.482-4.013 5.302-7.149 8.334-8.433-.008-.008-.015-.016-.023-.023-8.159.717-11.767 6.034-11.641 10.821.107 4.026 2.671 8.234 7.927 10.767-.55-.466-1.087-.971-1.609-1.517-3.869-4.048-4.033-7.893-3.293-10.658z" fill="#26c6da"/><path d="m6.701 17.387c6.739-8.559 14.96-9.73 20.357-6.801 4.518 2.451 7.656 8.351 4.833 15.925 1.605-1.05 2.786-2.787 3.499-5.225 1.448-4.951.569-9.449-2.478-12.665-2.801-2.954-7.104-4.47-11.767-4.286-4.124.595-8.1 2.456-11.273 5.629-3.046 3.046-4.887 6.832-5.558 10.778.634-1.233 1.428-2.36 2.387-3.355z" fill="#26a69a"/><path d="m26.05 15.227c.245.245.47.494.676.742 2.735 3.29 3.54 8.166 3.136 11.434.01-.003.021-.005.032-.008 3.459-7.425.658-13.208-3.551-15.492-3.54-1.92-8.467-1.804-13.288 1.481.679-.243 1.384-.457 2.119-.635 5.44-1.325 8.852.454 10.876 2.478z" fill="#90e249"/><path d="m38.489 12.473c4.043 10.116.947 17.82-4.288 21.031-4.382 2.687-11.061 2.455-16.208-3.777.107 1.915 1.021 3.806 2.775 5.643 3.564 3.73 7.899 5.217 12.207 4.186 3.959-.948 7.423-3.917 9.595-8.047 1.547-3.869 1.923-8.243.762-12.577-1.115-4.161-3.473-7.648-6.555-10.202.75 1.164 1.329 2.415 1.712 3.743z" fill="#e64a19"/><path d="m30.684 30.31c-.335.09-.663.159-.981.214-4.216.723-8.842-1.017-11.47-3.001-.003.01-.006.021-.009.031 4.701 6.708 11.109 7.174 15.192 4.671 3.433-2.105 5.795-6.431 5.361-12.248-.129.709-.297 1.427-.509 2.152-1.572 5.375-4.819 7.44-7.584 8.181z" fill="#ffa726"/></svg>