<svg height="48" viewBox="0 0 48 48" width="48" xmlns="http://www.w3.org/2000/svg"><path d="m29 4h-17c-2.209 0-4 1.791-4 4v32c0 2.209 1.791 4 4 4h24c2.209 0 4-1.791 4-4v-25zm7.17 10h-4.17c-1.105 0-2-.895-2-2v-4.17zm1.83 26c0 1.105-.895 2-2 2h-24c-1.105 0-2-.895-2-2v-32c0-1.105.895-2 2-2h16v6c0 2.209 1.791 4 4 4h6z" fill="#555"/><path d="m32 14h4.17l-6.17-6.17v4.17c0 1.105.895 2 2 2z" fill="#fff"/><path d="m32 16c-2.209 0-4-1.791-4-4v-6h-16c-1.105 0-2 .895-2 2v32c0 1.105.895 2 2 2h24c1.105 0 2-.895 2-2v-24z" fill="#fff"/><path d="m14 14h10v2h-10z" fill="#303f9f"/><path d="m14 20h20v2h-20z" fill="#26c6da"/><path d="m14 26h20v2h-20z" fill="#90e249"/><path d="m14 32h20v2h-20z" fill="#e64a19"/></svg>