<svg enable-background="new 0 0 48 48" height="48" viewBox="0 0 48 48" width="48" xmlns="http://www.w3.org/2000/svg"><path d="m13.006 15.805-4.55-4.673-1.172.322c-.382.105-.681.273-.894.486s-.34.471-.379.758c-.078.573.198 1.26.844 1.924l2.209 2.269z" fill="#26c6da"/><path d="m13.006 23.805-4.55-4.673-1.172.322c-.382.105-.681.273-.894.486s-.34.471-.379.758c-.078.573.198 1.26.844 1.924l2.209 2.269z" fill="#90e249"/><path d="m37.342 37.474-4.549-4.673-10.932 3.009c-.459.126-.956.19-1.478.19-2.001 0-4.197-.929-5.596-2.366l-.188-.193-3.941 1.085 5.562 5.713c1.293 1.328 3.581 2.063 5.11 1.642z" fill="#e64a19"/><path d="m13.006 31.805-4.55-4.673-1.172.322c-.382.105-.681.273-.894.486s-.34.471-.379.758c-.078.573.198 1.26.844 1.924l2.209 2.269z" fill="#e64a19"/><path d="m34.994 32.195 4.549 4.673 1.172-.322c.574-.158.959-.456 1.149-.837.316-.635.088-1.5-.72-2.33l-2.209-2.269z" fill="#90e249"/><path d="m34.994 24.195 4.549 4.673 1.172-.322c.574-.158.959-.456 1.149-.837.316-.635.088-1.5-.72-2.33l-2.209-2.269z" fill="#26c6da"/><path d="m34.994 16.195 4.549 4.673 1.172-.322c.574-.158.959-.456 1.149-.837.316-.635.088-1.5-.72-2.33l-2.209-2.269z" fill="#303f9f"/><path d="m21.33 17.881 9.774-2.69c-1.019-.738-2.341-1.191-3.488-1.191-.335 0-.655.038-.947.119l-9.774 2.69c1.02.738 2.342 1.191 3.488 1.191.336 0 .655-.038.947-.119z" fill="#1976d2"/><path d="m21.861 19.81c-.459.126-.956.19-1.478.19-2.001 0-4.197-.929-5.596-2.366l-.188-.193-3.941 1.085 4.55 4.673 10.931-3.009c.459-.126.956-.19 1.477-.19 2.001 0 4.197.929 5.596 2.366l.188.193 3.941-1.085-4.549-4.673z" fill="#26c6da"/><path d="m21.33 25.881 9.774-2.69c-1.019-.738-2.341-1.191-3.488-1.191-.335 0-.655.038-.947.119l-9.774 2.69c1.02.738 2.342 1.191 3.488 1.191.336 0 .655-.038.947-.119z" fill="#26a69a"/><path d="m21.861 27.81c-.459.126-.956.19-1.478.19-2.001 0-4.197-.929-5.596-2.366l-.188-.193-3.941 1.085 4.55 4.673 10.931-3.009c.459-.126.956-.19 1.477-.19 2.001 0 4.197.929 5.596 2.366l.188.193 3.941-1.085-4.549-4.673z" fill="#90e249"/><path d="m21.33 33.881 9.774-2.69c-1.019-.738-2.341-1.191-3.488-1.191-.335 0-.655.038-.947.119l-9.774 2.69c1.02.738 2.342 1.191 3.488 1.191.336 0 .655-.038.947-.119z" fill="#f57c00"/><path d="m10.658 10.533 4.549 4.673 10.931-3.009c.459-.126.956-.19 1.477-.19 2.001 0 4.197.929 5.596 2.366l.188.193 3.941-1.085-5.56-5.713c-1.293-1.328-3.581-2.063-5.11-1.642z" fill="#303f9f"/></svg>