<svg enable-background="new 0 0 48 48" height="48" viewBox="0 0 48 48" width="48" xmlns="http://www.w3.org/2000/svg"><path d="m4 12v24c0 2.209 1.791 4 4 4h32c2.209 0 4-1.791 4-4v-24c0-2.209-1.791-4-4-4h-32c-2.209 0-4 1.791-4 4z" fill="#555"/><path d="m8 10h32c1.105 0 2 .895 2 2v24c0 1.105-.895 2-2 2h-32c-1.105 0-2-.895-2-2v-24c0-1.105.895-2 2-2z" fill="#fff"/><path d="m36 14c-1.105 0-2 .895-2 2s.895 2 2 2 2-.895 2-2-.895-2-2-2z" fill="#f57c00"/><path d="m36 22c-1.105 0-2 .895-2 2s.895 2 2 2 2-.895 2-2-.895-2-2-2z" fill="#26a69a"/><path d="m36 30c-1.105 0-2 .895-2 2s.895 2 2 2 2-.895 2-2-.895-2-2-2z" fill="#1976d2"/><path d="m10 16 4-2 6 3 4-2 2 1 4-2v5l-8 4-8-4-4 2z" fill="#e64a19"/><path d="m10 31 6-3 8 4 6-3v5h-20z" fill="#303f9f"/><path d="m26 27-6-3-4 2-2-1-4 2v4l6-3 8 4 6-3v-4z" fill="#26c6da"/><path d="m22 23-8-4-4 2v6l4-2 2 1 4-2 6 3 4-2v-6z" fill="#90e249"/></svg>